<svg width="4" height="18" viewBox="0 0 4 18" fill="none" xmlns="http://www.w3.org/2000/svg">
<path d="M2.00092 7.02C1.74078 7.02 1.4832 7.07124 1.24286 7.17079C1.00253 7.27034 0.784156 7.41625 0.600212 7.60019C0.416268 7.78414 0.270356 8.00251 0.170807 8.24284C0.0712571 8.48318 0.0200197 8.74077 0.0200197 9.0009C0.0200197 9.26104 0.0712571 9.51863 0.170807 9.75896C0.270356 9.99929 0.416268 10.2177 0.600212 10.4016C0.784156 10.5856 1.00253 10.7315 1.24286 10.831C1.4832 10.9306 1.74078 10.9818 2.00092 10.9818C2.52629 10.9817 3.03009 10.7729 3.4015 10.4013C3.7729 10.0297 3.98149 9.52582 3.98137 9.00045C3.98125 8.47508 3.77243 7.97128 3.40086 7.59988C3.02928 7.22847 2.52539 7.01988 2.00002 7.02H2.00092ZM2.00092 4.68C2.26094 4.67988 2.51839 4.62855 2.75856 4.52894C2.99874 4.42932 3.21695 4.28338 3.40073 4.09944C3.5845 3.91549 3.73025 3.69715 3.82965 3.45688C3.92904 3.21661 3.98014 2.95912 3.98002 2.6991C3.9799 2.43908 3.92857 2.18164 3.82896 1.94146C3.72934 1.70128 3.5834 1.48307 3.39945 1.29929C3.21551 1.11552 2.99717 0.969771 2.7569 0.870375C2.51663 0.77098 2.25914 0.719883 1.99912 0.720001C1.47399 0.72024 0.970465 0.929076 0.599312 1.30057C0.228158 1.67206 0.019781 2.17577 0.0200197 2.7009C0.0202584 3.22603 0.229094 3.72956 0.600585 4.10071C0.972075 4.47186 1.47579 4.68024 2.00092 4.68ZM2.00092 13.32C1.47555 13.32 0.971703 13.5287 0.600212 13.9002C0.228721 14.2717 0.0200197 14.7755 0.0200197 15.3009C0.0200197 15.8263 0.228721 16.3301 0.600212 16.7016C0.971703 17.0731 1.47555 17.2818 2.00092 17.2818C2.52629 17.2818 3.03014 17.0731 3.40163 16.7016C3.77312 16.3301 3.98182 15.8263 3.98182 15.3009C3.98182 14.7755 3.77312 14.2717 3.40163 13.9002C3.03014 13.5287 2.52629 13.32 2.00092 13.32Z" fill="#00473E"/>
</svg>
